<svg xmlns="http://www.w3.org/2000/svg" viewBox="0 0 688.11 380.22"><defs><style>.cls-1{fill:#aacbe8;}.cls-2{fill:#fff;}.cls-3{fill:#9fc0e2;}.cls-4{fill:#d4eaf5;}.cls-5{fill:#c2e4fb;}.cls-6{fill:#ffcb48;}.cls-7{fill:#d5eaf5;}.cls-8{fill:#c43b72;}.cls-9{fill:#f97a8a;}.cls-10{fill:#7964a8;}.cls-11{fill:#81addc;}.cls-12{fill:#7f65c1;}.cls-13{fill:#ff97a6;}.cls-14{fill:#3b2b5b;}.cls-15{fill:#30193b;}.cls-16{fill:#c95d77;}.cls-17{fill:#6e57b5;}.cls-18,.cls-35,.cls-36,.cls-37,.cls-38,.cls-39{fill:none;}.cls-19{fill:#f78956;}.cls-20{fill:#041729;}.cls-21{fill:#81b1dc;}.cls-22{fill:#95bee1;}.cls-23{fill:#f194a5;}.cls-24{fill:#64529d;}.cls-25{fill:#eb5f52;}.cls-26{fill:#e95044;}.cls-27{fill:#c85e78;}.cls-28{fill:#2b5b6f;}.cls-29{fill:#3c7282;}.cls-30{fill:#92b9dd;}.cls-31{fill:#ffedcc;}.cls-32{fill:#ffd68d;}.cls-33{fill:#a9cae7;}.cls-34{fill:#ffa9ba;}.cls-35{stroke:#c9f0fe;}.cls-35,.cls-36,.cls-38,.cls-39{stroke-width:5px;}.cls-36{stroke:#f7bd59;}.cls-37{stroke:#ffda99;stroke-miterlimit:10;stroke-width:3px;}.cls-38{stroke:#f97a8a;}.cls-39{stroke:#c43b72;}</style></defs><g id="Layer_2" data-name="Layer 2"><g id="Layer_4" data-name="Layer 4"><path id="Path_4899" data-name="Path 4899" class="cls-1" d="M504.69,47.82,160.41,46.37a15.9,15.9,0,0,0-16,15.84l-.9,214.32,376.08,1.58.9-214.32A15.89,15.89,0,0,0,504.69,47.82Z"/><path id="Path_4900" data-name="Path 4900" class="cls-2" d="M504.24,54.51,160.92,53.06a9.92,9.92,0,0,0-9.79,10l-.82,196.18a9.91,9.91,0,0,0,9.7,10.11l343.32,1.45a9.92,9.92,0,0,0,9.79-10l.82-196.18A9.91,9.91,0,0,0,504.24,54.51Z"/><path id="Path_4901" data-name="Path 4901" class="cls-3" d="M568.65,324.52l-474.53-2,49.42-46,376.09,1.58Z"/><path id="Path_4902" data-name="Path 4902" class="cls-4" d="M525.18,313l-387.85-1.63,24.92-22.73L500.82,290Z"/><path id="Path_4903" data-name="Path 4903" class="cls-5" d="M563.62,331.49,99.09,329.54l-5-7,474.53,2Z"/><rect id="Rectangle_917" data-name="Rectangle 917" class="cls-6" x="122.63" y="56.46" width="61.68" height="45.47" rx="1.52"/><path id="Path_4955" data-name="Path 4955" class="cls-2" d="M159.13,71.55a5.91,5.91,0,1,1-6.76-4.9,5.9,5.9,0,0,1,6.76,4.9Z"/><path id="Path_4956" data-name="Path 4956" class="cls-2" d="M156.37,85.74h-6.14l3.07-16Z"/><path id="Path_4957" data-name="Path 4957" class="cls-6" d="M176.22,72.27h-6V52.14c0-10.19-7.5-18.48-16.73-18.48S136.74,42,136.74,52.14V72.27h-6V52.14c0-13.52,10.21-24.51,22.76-24.51s22.75,11,22.75,24.51Z"/><rect id="Rectangle_918" data-name="Rectangle 918" class="cls-7" x="208.97" y="22.12" width="233.61" height="213.81"/><rect id="Rectangle_919" data-name="Rectangle 919" class="cls-1" x="215.35" y="123.96" width="151.31" height="104.22"/><path id="Path_4958" data-name="Path 4958" class="cls-1" d="M418.34,32a2.55,2.55,0,1,1-2.57-2.53h0A2.54,2.54,0,0,1,418.34,32Z"/><path id="Path_4959" data-name="Path 4959" class="cls-1" d="M424.15,29.51A2.53,2.53,0,1,1,421.6,32a2.55,2.55,0,0,1,2.55-2.53Z"/><path id="Path_4960" data-name="Path 4960" class="cls-1" d="M432.79,29.51A2.53,2.53,0,1,1,430.24,32a2.54,2.54,0,0,1,2.55-2.53Z"/><rect id="Rectangle_920" data-name="Rectangle 920" class="cls-2" x="215.35" y="38.17" width="221.79" height="14.47"/><rect id="Rectangle_921" data-name="Rectangle 921" class="cls-8" x="370.82" y="57.52" width="65.77" height="61.38"/><rect id="Rectangle_922" data-name="Rectangle 922" class="cls-9" x="215.35" y="57.52" width="73.59" height="61.38"/><rect id="Rectangle_922-2" data-name="Rectangle 922" class="cls-10" x="295.85" y="57.2" width="70.6" height="61.38"/><path id="Path_4428" data-name="Path 4428" class="cls-2" d="M386.42,101.94a.6.6,0,0,1-.45-.57l.23-26.61a.57.57,0,0,1,.58-.57l34.1.28a.59.59,0,0,1,.57.59l-.23,26.61a.58.58,0,0,1-.58.57L386.55,102Zm.93-26.59-.21,25.45,32.93.28.22-25.45Z"/><path id="Path_4429" data-name="Path 4429" class="cls-2" d="M418.28,99.44,389,99.2,389,87.94l7.83-4.68L404.44,89l4.69-1.58,9.22,3.75Z"/><path id="Path_4430" data-name="Path 4430" class="cls-2" d="M405.58,82.08a2.23,2.23,0,1,0,2.25-2.21A2.23,2.23,0,0,0,405.58,82.08Z"/><path class="cls-2" d="M333.92,68.18a1.54,1.54,0,0,1,.94,1.62c0,5,0,10.09,0,15.13v.5h4.71a1.29,1.29,0,0,1,1.33.73,1.27,1.27,0,0,1-.33,1.47q-4.19,4.78-8.36,9.56a1.26,1.26,0,0,1-2.1,0q-4.19-4.77-8.36-9.56a1.26,1.26,0,0,1,1-2.2h4.71V85c0-5.06,0-10.11,0-15.17a1.54,1.54,0,0,1,.94-1.62Z"/><path class="cls-2" d="M312.67,95.3h4.92v7.36h27.09V95.31h4.94c0,.13,0,.25,0,.38v9.2a2.5,2.5,0,0,1-2.73,2.72H315.41a2.51,2.51,0,0,1-2.74-2.76V95.3Z"/><path class="cls-2" d="M252.73,98.52a1.51,1.51,0,0,0,.93-1.62c0-5.05,0-10.09,0-15.13v-.5h4.72a1.3,1.3,0,0,0,1.32-.73,1.28,1.28,0,0,0-.32-1.48q-4.19-4.77-8.36-9.56a1.26,1.26,0,0,0-2.1,0c-2.79,3.19-5.57,6.38-8.37,9.56a1.29,1.29,0,0,0-.32,1.48,1.32,1.32,0,0,0,1.33.73h4.71v.46c0,5.06,0,10.11,0,15.17a1.52,1.52,0,0,0,.94,1.62Z"/><path class="cls-2" d="M231.47,96.07h4.92v7.36h27.1V96.08h4.93c0,.13,0,.25,0,.38v9.2a2.5,2.5,0,0,1-2.73,2.72h-31.5a2.51,2.51,0,0,1-2.74-2.76V96.07Z"/><path id="Path_4906" data-name="Path 4906" class="cls-11" d="M443.11,366.78c0,2.86-18,5.18-40.1,5.18s-40.11-2.32-40.11-5.18,18-5.19,40.11-5.19S443.11,363.91,443.11,366.78Z"/><path id="Path_4965" data-name="Path 4965" class="cls-12" d="M424.6,368.07c.36-2.15-2.65-1.55-4.39-2,.52.31,1.05.77.24,1-1.19.37-3.81.06-4.61-.78a5.61,5.61,0,0,0-.3,2.15C415.57,369.21,424.34,369.58,424.6,368.07Z"/><path id="Path_4966" data-name="Path 4966" class="cls-13" d="M420.45,367.05c.81-.25.28-.71-.24-1-1.09-.3-2-.51-2.2-.59a1.31,1.31,0,0,1-.69-.7l-.55-.1s-.85,1.44-.93,1.63C416.64,367.11,419.26,367.42,420.45,367.05Z"/><path id="Path_4967" data-name="Path 4967" class="cls-12" d="M386.69,368.07c.37-2.15-2.64-1.55-4.39-2,.53.31,1.05.77.25,1-1.19.37-3.81.06-4.61-.78a5.61,5.61,0,0,0-.3,2.15C377.67,369.21,386.44,369.58,386.69,368.07Z"/><path id="Path_4968" data-name="Path 4968" class="cls-13" d="M382.55,367.05c.81-.25.28-.71-.24-1-1.09-.3-2-.51-2.2-.59a1.31,1.31,0,0,1-.69-.7l-.55-.1s-.85,1.44-.93,1.63C378.74,367.11,381.36,367.42,382.55,367.05Z"/><path id="Path_4969" data-name="Path 4969" class="cls-14" d="M383.75,267.94a25.19,25.19,0,0,0-5.65,9.33c-3.9,10.5-1.41,76.75.11,88,.21,1.52,1.9.19,1.9.19l15.29-73.18,12.29,23.19,8.15,49.95,1.82-.19s4.13-35.79,2.8-51.56c-1.08-12.88-8.56-43.35-10.35-46.16C406.59,266.75,389.2,267.5,383.75,267.94Z"/><path id="Path_4970" data-name="Path 4970" class="cls-15" d="M413.58,308.47a46.9,46.9,0,0,1,1.84,9.38L417,365.28l.7-.07s4.13-35.8,2.81-51.56c-1.09-12.88-8.57-43.35-10.36-46.16a37.11,37.11,0,0,0-9.1-.92C395.85,266.67,410,297.35,413.58,308.47Z"/><path id="Path_4971" data-name="Path 4971" class="cls-2" d="M418.91,185.92l-65.36,8.25,3.23,22,64.75-9.42Z"/><rect id="Rectangle_924" data-name="Rectangle 924" class="cls-7" x="356.9" y="193.55" width="59.3" height="2.63" transform="translate(-21.33 49.86) rotate(-7.18)"/><rect id="Rectangle_925" data-name="Rectangle 925" class="cls-7" x="357.59" y="199.33" width="48.91" height="2.63" transform="translate(-22.11 49.39) rotate(-7.19)"/><rect id="Rectangle_926" data-name="Rectangle 926" class="cls-7" x="358.29" y="205.29" width="34.83" height="2.63" transform="translate(-22.88 48.59) rotate(-7.18)"/><path id="Path_4972" data-name="Path 4972" class="cls-13" d="M421.05,200.31a.63.63,0,0,0,.53-.52,13.35,13.35,0,0,0-.05-4,11.85,11.85,0,0,0-1.64-2.87.42.42,0,0,0-.59,0l0,0c-.19.18.09,1.28.09,2.28a7.88,7.88,0,0,0,.06,1.68s-.66-1.22-1-1,.26,2.51.82,3a7.4,7.4,0,0,1,.52,1.19C419.87,200.31,420.56,200.38,421.05,200.31Z"/><path id="Path_4973" data-name="Path 4973" class="cls-13" d="M354.85,208.87a.62.62,0,0,1-.6-.44,13.56,13.56,0,0,1-.53-4,12.15,12.15,0,0,1,1.22-3.07.41.41,0,0,1,.58-.13h0c.22.16.09,1.28.24,2.27a8.52,8.52,0,0,1,.17,1.67s.49-1.3.83-1.13.1,2.53-.38,3.11a8,8,0,0,0-.35,1.25C356,208.7,355.34,208.87,354.85,208.87Z"/><path id="Path_4974" data-name="Path 4974" class="cls-10" d="M425.29,199.3a1.63,1.63,0,0,0-1.13-.78c-1-.17-3.41.89-4.65,1.49a1.52,1.52,0,0,0-.86,1.26,17.91,17.91,0,0,0,0,3.66c.47,3.45,2.29,17.94,2.29,17.94.73-.44-2.69,3.47-10.89,8.5a50.77,50.77,0,0,1-10.28,4.26c-5,1.26-16.9,2.11-20.62,1.29-7.2-1.58-15.93-6.51-15.93-6.51S361,216,360.49,212.52a18.54,18.54,0,0,0-1-3.51,1.53,1.53,0,0,0-1.18-1c-1.36-.24-4-.6-4.88-.16a1.61,1.61,0,0,0-.87,1.05c-.85,3.35-4,18.17,4.27,25.8,4.8,4.43,15.42,9.39,23,10.92,1.65,8.72,4,21.32,3.9,22.29,4.43,2,24.11.63,26.36-.45a61.63,61.63,0,0,0,2.77-13.85c.26-4.78.36-10.51.39-14,6-4,12.23-9.83,15-14.32C434.11,215.67,427,202.29,425.29,199.3Z"/><path id="Path_4975" data-name="Path 4975" class="cls-14" d="M425.29,199.3a1.63,1.63,0,0,0-1.13-.78c-1-.17-3.41.89-4.65,1.49a1.52,1.52,0,0,0-.86,1.26,17.91,17.91,0,0,0,0,3.66c.47,3.45,2.29,17.94,2.29,17.94.73-.44-2.69,3.47-10.89,8.5a58.92,58.92,0,0,1-7.74,3.46s2.92,8,2.63,15.44c-.35,8.82-4.84,18.47-4.84,18.47s8.14-.35,10-1.25a61.3,61.3,0,0,0,2.77-13.85c.26-4.78.36-10.51.39-14,6-4,12.24-9.83,15-14.33C434.11,215.67,427,202.29,425.29,199.3Z"/><path id="Path_4976" data-name="Path 4976" class="cls-13" d="M393.07,233.07s-.23,3.76.2,4.11a1.85,1.85,0,0,0,2.52-.37c.65-1-.6-4.09-.6-4.09Z"/><path id="Path_4977" data-name="Path 4977" class="cls-16" d="M393,235.79a4.49,4.49,0,0,0,2.93-.32,10.76,10.76,0,0,0-.47-1.94l-2.45.4C393,234.47,393,235.17,393,235.79Z"/><path id="Path_4978" data-name="Path 4978" class="cls-6" d="M397.91,226.53s2.28-6.93-.57-10.27-17,3.44-14.38,5c.64.37,3-.31,2.77,1.06s-1.83,5.09-.5,7.22a6.1,6.1,0,0,0,7.46,2.73C396,230.92,397.91,226.53,397.91,226.53Z"/><path id="Path_4979" data-name="Path 4979" class="cls-13" d="M395.52,226.57c-1.85-1.24-5.55.85-6,1.57s-.13,1.89.16,2.7,2.23,4.06,5,3.49C399.8,233.27,395.52,226.57,395.52,226.57Z"/><path id="Path_4904" data-name="Path 4904" class="cls-11" d="M306.51,313c0,2.87-17.95,5.19-40.1,5.19s-40.1-2.32-40.1-5.19,17.95-5.18,40.1-5.18S306.51,310.11,306.51,313Z"/><path id="Path_4980" data-name="Path 4980" class="cls-9" d="M238.57,188.33a34.52,34.52,0,1,1,45.92,16.57,34.52,34.52,0,0,1-45.92-16.57Z"/><path id="Path_4981" data-name="Path 4981" class="cls-2" d="M256.62,141.75a34.36,34.36,0,0,1,19.3-2.08l-6.7,34.23Z"/><path id="Path_4982" data-name="Path 4982" class="cls-10" d="M237.22,185a34.25,34.25,0,0,1,19.39-43.29l12.6,32.15Z"/><path id="Path_4983" data-name="Path 4983" class="cls-14" d="M237.22,185c6.23,18.94,26.8,27.23,44,21.15l-12-32.29Z"/><path id="Path_4984" data-name="Path 4984" class="cls-15" d="M295.45,379.94c1.37-1.18-1.66-5.41-2.74-6.49.25.51.51,1.46-.21,1.49a3.39,3.39,0,0,1-2.76-2.5,9.7,9.7,0,0,0-1.22,2.29C288.17,375.62,293.56,381.57,295.45,379.94Z"/><path id="Path_4985" data-name="Path 4985" class="cls-9" d="M293.19,376.16c.72,0-.1-2-.34-2.49a10,10,0,0,0-1.1-1.48,1.42,1.42,0,0,1-.19-1l-.64-.36a1.7,1.7,0,0,1-.72,1.15,2.45,2.45,0,0,0-.46.45C289.94,373.62,292.13,376.2,293.19,376.16Z"/><path id="Path_4986" data-name="Path 4986" class="cls-15" d="M314.62,376c.92-1-1.65-5.48-2.73-6.56.25.51.51,1.46-.21,1.49a3.41,3.41,0,0,1-2.76-2.5,9.91,9.91,0,0,0-1.23,2.29C307.35,371.55,313,377.8,314.62,376Z"/><path id="Path_4987" data-name="Path 4987" class="cls-9" d="M312.37,372.1c.72,0-.09-2-.34-2.5a10.42,10.42,0,0,0-1.1-1.47,1.44,1.44,0,0,1-.19-1l-.64-.36a1.72,1.72,0,0,1-.72,1.15,2.4,2.4,0,0,0-.45.45C309.13,369.56,311.31,372.14,312.37,372.1Z"/><path id="Path_4988" data-name="Path 4988" class="cls-12" d="M257.62,281.87c-5.58,2.64-5.17,15.91-5.36,24.44C252,320.22,285,325.72,285,325.72s1.16,38.87,3,45.13c.5,1.75,6.61.32,6.61.32s11.13-41.43,6.45-53.95c-2.8-7.49-20.41-14.87-20.41-14.87l27.53,17.85,1.46,47.15,6.12-.89s13.38-37.31,9.11-55.62c-2.31-9.91-36.08-22-36.08-22s-8.07-5.54-8.95-6.55C275.51,282,264,280.41,257.62,281.87Z"/><path id="Path_4989" data-name="Path 4989" class="cls-13" d="M245,201.48s.42-3.11-.76-3.63-4.93-4.85-5.29-4.41-.16,2,.91,3.78a18.38,18.38,0,0,0,2.12,2.29c.48.33.86,2.5,1.8,3.23C244.13,203,244.86,202.53,245,201.48Z"/><path id="Path_4990" data-name="Path 4990" class="cls-13" d="M243.42,198.16a24.27,24.27,0,0,1-2.3-3.94c-.21-.48.33-.26.33-.26s3.82,3.82,3.57,5.37S243.42,198.16,243.42,198.16Z"/><path id="Path_4991" data-name="Path 4991" class="cls-16" d="M245.56,202a1.6,1.6,0,0,1,1.13,1.55c-.05,5.15-2.06,30.29-2.23,33-.27,4-.43,7.89-5.26,3.61-2.08-1.86-4.25-13.47-5-16.6C231.79,213.47,231.06,197.38,245.56,202Z"/><path id="Path_4992" data-name="Path 4992" class="cls-17" d="M272.42,291.23a28.74,28.74,0,0,1-1.74,9.72,22.41,22.41,0,0,1,6.37.35,31.68,31.68,0,0,1,4.89,2.12c7.19,3.95,26.19,16.78,26.19,16.78l1.47,47.15,6.12-.89s13.37-37.31,9.1-55.62c-2.3-9.91-36.08-22-36.08-22s-8.07-5.54-8.95-6.55c-2.07-.13-7-1-7-1S272.6,285.83,272.42,291.23Z"/><path id="Path_4993" data-name="Path 4993" class="cls-16" d="M281.41,262.35c1.6,7.67,2.17,10.79.22,20.86-.57,2.94-28,7-28.46,5.42-.17-.59-1.34-6-1.61-8.49-1.26-11.73-2.6-16.55-1.28-21.07.92-3.15-1.16-4.41,14.68-7.22,5-.88,11.72.36,13.61.74C281.62,253.19,280.75,259.15,281.41,262.35Z"/><path id="Path_4994" data-name="Path 4994" class="cls-18" d="M256.89,244.7s0,0,0,0"/><path id="Path_4995" data-name="Path 4995" class="cls-16" d="M256.45,265.85s3.68-5.23-2.4-13.55a96.47,96.47,0,0,1-10.2-17.6h-7s5.09,19.57,12.41,28.92c.62.8,2.25,3.95,2.78,4.34C253.63,269.13,256.45,265.85,256.45,265.85Z"/><path id="Path_4996" data-name="Path 4996" class="cls-13" d="M292.64,201.89s-.07-3.13,1.17-3.52,5.45-4.26,5.75-3.78-.06,2-1.33,3.66a18.12,18.12,0,0,1-2.36,2c-.52.29-1.14,2.4-2.16,3C293.34,203.52,292.67,203,292.64,201.89Z"/><path id="Path_4997" data-name="Path 4997" class="cls-13" d="M294.6,198.77a25,25,0,0,0,2.73-3.65c.26-.46-.31-.29-.31-.29s-4.22,3.36-4.15,4.92S294.6,198.77,294.6,198.77Z"/><path id="Path_4998" data-name="Path 4998" class="cls-13" d="M289.74,201.19a1.45,1.45,0,0,0-1.41,1.28c-1,5.05,1.31,22.43.94,25.1-.55,3.92.91,11.42,4.89,6.34,2-2.54,4.86-9.62,4.95-13.07C299.38,210.51,302.61,202.37,289.74,201.19Z"/><path id="Path_4999" data-name="Path 4999" class="cls-13" d="M281.14,261.38s2.85-2.68,7.12-10.62c5.48-10.19,9.79-25.87,9.41-23.9l-7.74-2s-8.42,24.34-16.44,27.63c-.94.38.1,3.2,0,3.85C273.21,258.29,281.14,261.38,281.14,261.38Z"/><path id="Path_5000" data-name="Path 5000" class="cls-13" d="M281.41,262.35c1.6,7.67,2.17,10.79.22,20.86-.2,1.06-3.9,2.27-8.57,3.31l-.56.13a83.34,83.34,0,0,0-1.35-17.56c-1.3-7.23-4.55-17.45-4.27-17.47l.74-.05a50.26,50.26,0,0,1,10.94,1C281.62,253.19,280.75,259.15,281.41,262.35Z"/><path id="Path_5001" data-name="Path 5001" class="cls-9" d="M268.48,246.61s.08,5.95-.43,6.54a1.71,1.71,0,0,1-2.88-.36c-.7-1.58.9-6.53.9-6.53Z"/><path id="Path_5002" data-name="Path 5002" class="cls-16" d="M268.43,250.44c-1,.36-2.85-.39-3.09-1.56.12-1.06.12-.44.35-1.32l2.8.41C268.48,248.82,268.49,249.45,268.43,250.44Z"/><path id="Path_5003" data-name="Path 5003" class="cls-14" d="M267.36,255.72s-.76,13.73-.76,18.31,1,5.64,1,5.64l4.09,1.84,3.05-3.43s-5.11-20.55-6.74-22.36S267.36,255.72,267.36,255.72Z"/><path id="Path_5004" data-name="Path 5004" class="cls-14" d="M266,254.33s1.06,1.62,1.74,1.58.69-.9.74-1.6-1.08-1-2-.52S266,254.33,266,254.33Z"/><path id="Path_5005" data-name="Path 5005" class="cls-16" d="M268.43,250.53a5.11,5.11,0,0,1-.08,1c-.09.49,0,.73-1,1.94l1.87,2S271.05,253.56,268.43,250.53Z"/><path id="Path_5006" data-name="Path 5006" class="cls-16" d="M265,250.93a1.74,1.74,0,0,0,.23.89,3.71,3.71,0,0,0,2.13,1.68L266,256.07S262.87,254.38,265,250.93Z"/><path id="Path_5007" data-name="Path 5007" class="cls-10" d="M270.2,240c.29,1.68.78,4-.49,5.18-2.35-.69-1.68-6.34-2-8C267.74,237.11,269.9,238.26,270.2,240Z"/><path id="Path_5008" data-name="Path 5008" class="cls-19" d="M269,248.46l-1.2.21a5.34,5.34,0,0,1-6.18-4.34l-.05-.25a3.75,3.75,0,0,1,3-4.33h0l.64-.11a3.73,3.73,0,0,1,4.33,3h0l.7,4a1.58,1.58,0,0,1-1.27,1.83Z"/><path id="Rectangle_927" data-name="Rectangle 927" class="cls-20" d="M266.7,247.82l-3.51.62a1.34,1.34,0,0,1-1.55-1.09h0l-.91-5.16a.9.9,0,0,1,.72-1h0l3.95-.69a.5.5,0,0,1,.58.4l1.12,6.38a.49.49,0,0,1-.4.57Z"/><path id="Path_5009" data-name="Path 5009" class="cls-9" d="M268.45,250.74l-3.43.43-.81-4.63,4.24-.74Z"/><path id="Path_5010" data-name="Path 5010" class="cls-9" d="M270.64,245.85l-.49.08-.28-1.59.92,1a.26.26,0,0,1,0,.39A.21.21,0,0,1,270.64,245.85Z"/><path id="Path_5011" data-name="Path 5011" class="cls-20" d="M264.24,248.83h0a1.43,1.43,0,0,0,1.16-1.66l-.11-.63a1.43,1.43,0,0,0-1.66-1.16h0a1.43,1.43,0,0,0-1.16,1.65h0l.12.63a1.43,1.43,0,0,0,1.65,1.17Z"/><path id="Path_5012" data-name="Path 5012" class="cls-9" d="M266.24,246.66l-.9.16a.91.91,0,0,1-1.06-.74l-.12-.7a.91.91,0,0,1,.74-1.06h0a.91.91,0,0,1,1.06.74Z"/><path id="Path_5013" data-name="Path 5013" class="cls-20" d="M265.63,243.27l.4,2.25a.92.92,0,0,0,1,.76l-.54-3.1.24,0v0Z"/><rect id="Rectangle_928" data-name="Rectangle 928" class="cls-9" x="266.83" y="242.91" width="3.17" height="4.55" transform="translate(-38.42 50.22) rotate(-9.98)"/><path id="Rectangle_929" data-name="Rectangle 929" class="cls-9" d="M265.74,241.36l2.95-.52a.56.56,0,0,1,.65.46l.32,1.85h0l-3.5.61a.42.42,0,0,1-.48-.33h0l-.27-1.58a.42.42,0,0,1,.33-.48Z"/><path id="Path_5014" data-name="Path 5014" class="cls-20" d="M270.26,245.91l.41,2.34a.73.73,0,0,1-.59.84h0l-1.16.21a2.19,2.19,0,0,1-2.53-1.77l-.41-2.36.81-.14.32,1.86a.42.42,0,0,0,.49.34h0l.7-.13a.41.41,0,0,0,.34-.48h0a.42.42,0,0,1,.34-.49h0Z"/><path id="Path_5015" data-name="Path 5015" class="cls-10" d="M269.07,240.78c-.34,2.18-4.26,5.59-6.45,7-1.53.27-2.93-2.29-2.85-4.7.06-2.1,3.87-8.2,6.81-6.91S269.37,238.81,269.07,240.78Z"/><path id="Path_4905" data-name="Path 4905" class="cls-11" d="M632.21,373c0,2.87-18,5.19-40.1,5.19S552,375.89,552,373s18-5.18,40.11-5.18S632.21,370.16,632.21,373Z"/><path class="cls-21" d="M580.19,188.21c-10-8.13-17.65-10.63-30.58-13.21q-3.33,9.65-5.88,19.34c11.12,2.29,18.78,6.42,27.13,13.48A126.58,126.58,0,0,0,580.19,188.21Z"/><path class="cls-21" d="M548.15,239.06c-5.84-9.66,3.49-23,.27-33.07q-11,.87-22.33,1.74c5.78,9.8-4.27,23.65-1.38,34.42Q536.23,240.7,548.15,239.06Z"/><path class="cls-22" d="M503.78,206.27c11.81,7.93,22.94,10.26,38.62,10.41-5.77-2.7-10-7.44-11.45-12.44-7.26.23-14.39-2.34-23.39-11.14A17.15,17.15,0,0,0,503.78,206.27Z"/><path class="cls-14" d="M565.53,373.34c0-2.07,2.39-1.48,4-1.95-.47.3-.94.73-.2.95,1.08.33,3.46,0,4.18-.78a5.24,5.24,0,0,1,.3,2C573.76,374.29,565.53,374.75,565.53,373.34Z"/><path class="cls-23" d="M569.3,372.34c-.74-.22-.27-.65.2-.95,1-.29,1.81-.49,2-.57a1.17,1.17,0,0,0,.62-.66l.49-.1s.79,1.33.87,1.5C572.76,372.35,570.38,372.67,569.3,372.34Z"/><path class="cls-14" d="M617.24,373.73c.21-1.57-2.33-1.6-3.9-2.14.47.32.92.77.17,1-1.1.28-3.48-.16-4.16-1a5.11,5.11,0,0,0-.39,2C608.94,374.29,617.05,375.13,617.24,373.73Z"/><path class="cls-23" d="M613.51,372.55c.75-.19.3-.64-.17-1-1-.34-1.79-.59-2-.68a1.17,1.17,0,0,1-.59-.69l-.49-.12s-.86,1.3-.94,1.47C610,372.39,612.41,372.83,613.51,372.55Z"/><path class="cls-10" d="M607.2,271.84c0,.24,4.62,9.27,5.93,15.83,4,19.76-.45,71.92-1.8,82.39-.19,1.41-3.08-.25-3.16-2-.52-11-13.11-73.15-13.11-73.15l-20.15,76.21-3.22-.6s-2.62-37.3,2.81-54.54c3.61-11.46-1.34-27.45,11-42.18C588.68,273.09,602.21,271.44,607.2,271.84Z"/><path class="cls-24" d="M609.73,370.25a2.81,2.81,0,0,1-1.56-2.2c-.52-11-13.11-73.15-13.11-73.15l-20.15,76.21-3.22-.6s-1.35-37.81.87-56.66c1.41-11.94.6-25.33,12.91-40.06,1.72-.38,6.39-1,11.13-1.48,2.08-.2,8.64,20.58,11.24,45.12C610.39,341.39,610.27,370.6,609.73,370.25Z"/><path class="cls-25" d="M599.28,246.62a114.58,114.58,0,0,0,8-15.72c1.17-2.8,3.64-8.82,3.05-16-.5-6.13-7.4-10-7.4-10s-3.21,2.75-3.13,6.1.2,13.26.66,17.35-5.77,14.19-6.68,17.77a26.64,26.64,0,0,0-.66,4.54Z"/><path class="cls-25" d="M598.52,242.84c-2.85-1.16-10.18-1.08-21.45,5.15a13.17,13.17,0,0,0-3.11,2.4c2.06,3.87,2.15,9.82,2.15,9.82,4.56,5,8.76,12.71,9.15,14.08,4.45.22,20.57-.28,22.14-2,0-.06-.71-10.87-3-16.94A96.48,96.48,0,0,0,598.52,242.84Z"/><path class="cls-26" d="M583.4,244.86c-1.12.62-8.24,4-9.44,5.53,2.06,3.87,2.15,9.82,2.15,9.82a52.93,52.93,0,0,1,8.62,14.49c2.22.11,13.3-.72,13.3-.72s-4.69-7.61-8-14.8C585,248.47,583.8,244.64,583.4,244.86Z"/><path class="cls-26" d="M568.6,274.29s6.79-12.93,8.7-15.45C581,254,581,254.07,581,254.07l.71-6.09s-4.64-1-7.05,1.44c-4.47,4.49-10.71,20-11.36,20.73Z"/><path class="cls-26" d="M557.61,265.51c-3.58-1.34-14.07-5.81-14.07-5.81-6.3-1.89-7.17,5.25-4.61,7.67,4.78,4.52,18.45,8.28,27.73,7.66,3.63-.24,3.46-4.28-1.19-6.06C561.73,267.54,560.06,266.43,557.61,265.51Z"/><path class="cls-23" d="M582.9,240.19s1.56,4.31,1.33,4.87a1.32,1.32,0,0,1-2.19.48c-.91-1-1-5-1-5Z"/><path class="cls-27" d="M583.82,243a2,2,0,0,1-2.65-.35c-.18-.8,0-.35-.07-1l2.14-.41C583.45,241.8,583.62,242.26,583.82,243Z"/><path class="cls-14" d="M584.37,247.12s2.93,10.21,4.09,13.54,2.17,3.86,2.17,3.86l3.45.3,1.35-3.27s-8.93-13.7-10.57-14.6S584.37,247.12,584.37,247.12Z"/><path class="cls-14" d="M583,246.44s1.18.92,1.67.72.27-.83.14-1.36-1.05-.44-1.61.13S583,246.44,583,246.44Z"/><path class="cls-26" d="M583.84,243.06a4.05,4.05,0,0,1,.21.77,2.39,2.39,0,0,1-.21,1.66l1.87,1S586.52,244.61,583.84,243.06Z"/><path class="cls-25" d="M581.47,244.21a1.33,1.33,0,0,0,.39.6,2.91,2.91,0,0,0,2,.68l-.33,2.22A2.63,2.63,0,0,1,581.47,244.21Z"/><path class="cls-28" d="M581.11,241.56s-1.6,1.2-4.56-.21c-3.86-1.84-2.07-4.61-2.07-4.61s-3.86-1.86-.05-6.09-2.25-6.21,2.36-5.75c1.53.15,7.12,3.14,5.57,7.61,0,0,3.7,4.15,2.68,5.71A15.77,15.77,0,0,1,581.11,241.56Z"/><path class="cls-23" d="M580.27,241.6c-.7-.33-2.24-2.7-2.24-2.7-.73-2,3.21-4,4-4.06s1.54.75,2.05,1.35a5.67,5.67,0,0,1,1.23,2.68,3.65,3.65,0,0,1-1.21,2.39C582.39,242.56,581.57,242.51,580.27,241.6Z"/><path class="cls-29" d="M585.19,237.25a4.65,4.65,0,0,0-.38-1.32,8.35,8.35,0,0,0-.64-1.22c-.24-.39-.51-.77-.78-1.14s-.57-.72-.88-1.06l0,.21a4.79,4.79,0,0,0,.09-3.17,6.16,6.16,0,0,0-1.78-2.61,9,9,0,0,0-2.6-1.74,5,5,0,0,0-3.06-.3,5.29,5.29,0,0,1,3,.54,9.88,9.88,0,0,1,2.43,1.78,5.8,5.8,0,0,1,1.64,2.46,4.37,4.37,0,0,1,0,2.88h0a.18.18,0,0,0,0,.2c.3.33.61.65.9,1s.57.7.83,1.07.5.75.72,1.15A5.52,5.52,0,0,1,585.19,237.25Z"/><path class="cls-22" d="M540.87,228.59c-7.42,8.86-9.76,14.28-12.24,25.83,5.29,2.71,11.33,5.81,17.09,7.41A52.53,52.53,0,0,1,558.3,237.2,113.42,113.42,0,0,0,540.87,228.59Z"/><path class="cls-23" d="M535.43,257.83c.59-.19,1,.37,1.45.73l-.09-.55,0-.22,0-.14c-.15-.47-.29-.94-.41-1.4a2.18,2.18,0,0,1,0-1.11,3.66,3.66,0,0,1,.3-1.29.1.1,0,0,1,.17,0,.13.13,0,0,1,.06.05,16,16,0,0,1,.38,2.47,2.4,2.4,0,0,0,.11.23v0c0-.22,0-.43,0-.64a8,8,0,0,1,.07-1.61,1.05,1.05,0,0,1,.27-.71.11.11,0,0,1,.12,0,.56.56,0,0,1,.26.51.08.08,0,0,1,0,0s0,0,0,0l.11,0h0a.11.11,0,0,1,.11,0l0,0a.48.48,0,0,1,.17.24,3.1,3.1,0,0,1,.15.85l.09.86c0,.15.05.3.07.45s0,.26,0,.39h.18a1.21,1.21,0,0,1,0-.19c-.07-.56-.12-1.12-.14-1.68,0-.22-.08-.52.09-.69a.1.1,0,0,1,.09,0s.09,0,.11,0a4.29,4.29,0,0,1,.62,2.61c0,.13,0,.26,0,.39s.06.38.09.5c.11.54.22,1.07.32,1.61a2.2,2.2,0,0,1,.19,1.05c-.13.6-.8.82-1.33.87a1.51,1.51,0,0,1-1.45-.83.94.94,0,0,1-.09-.12l-.12-.09a4.22,4.22,0,0,1-1-.85,5.58,5.58,0,0,1-.87-1.13,1,1,0,0,1-.23-.39A.06.06,0,0,1,535.43,257.83Z"/><path class="cls-22" d="M600.63,192.42c-16.61-3.77-24.23-2.73-34.9,3.25,1.84,6.93,4.09,14.28,4.93,21.37,11.55-3.3,19.77-5.08,31.06-2.54A124.5,124.5,0,0,0,600.63,192.42Z"/><path class="cls-23" d="M601.62,200.93c-.41.46-.08,1.11.09,1.63l-.48-.31-.18-.12-.12-.08c-.36-.33-.73-.65-1.11-.94a2.29,2.29,0,0,0-1-.44,3.91,3.91,0,0,0-1.31-.25.1.1,0,0,0-.09.15.11.11,0,0,0,0,.07,15.67,15.67,0,0,0,2.1,1.36l.17.19h0l-.58-.28a6.81,6.81,0,0,0-1.49-.59,1.12,1.12,0,0,0-.76-.05.12.12,0,0,0-.07.1.55.55,0,0,0,.36.45h0l0,0a.3.3,0,0,0-.08.08l0,0a.12.12,0,0,0,0,.1l0,0a.39.39,0,0,0,.15.24,2.82,2.82,0,0,0,.71.49l.74.44.4.24.32.21-.06.16-.18-.08c-.48-.29-1-.56-1.48-.81-.2-.1-.44-.28-.67-.2,0,0,0,0,0,.07a.09.09,0,0,0,0,.11A4.36,4.36,0,0,0,599,204.6l.34.2c.14.12.32.22.42.3l1.34.94a2.1,2.1,0,0,0,.88.6c.6.14,1.08-.39,1.34-.85a1.51,1.51,0,0,0-.17-1.66s-.05-.1-.07-.14,0-.09,0-.14a4,4,0,0,0-.35-1.3,4.86,4.86,0,0,0-.67-1.25.89.89,0,0,0-.27-.37A.06.06,0,0,0,601.62,200.93Z"/><path id="Path_4907" data-name="Path 4907" class="cls-11" d="M106.9,297.6c0,3.1-19.43,5.62-43.41,5.62s-43.43-2.52-43.43-5.62S39.51,292,63.49,292,106.9,294.5,106.9,297.6Z"/><path class="cls-9" d="M109.76,157c-.33-3.61-4.56-5.36-7.6-4.24.85-2.78,1.46-6.75-1-8.79a4.16,4.16,0,0,0-5.79.33c-2-.66-2.59-2.91-4.1-4.28a10.2,10.2,0,0,0-4.48-2.35c-2.77-.65-6.48,0-8.46,2.22-1.67-5-7.8-8.39-12.69-8.77-4.5-.35-12,1.59-13.05,6.77-2.59,4.91,1.81,11.46,6.2,14.24a18,18,0,0,0,20.33-.86c1.15,3.22,4.84,5.3,8.11,5.54a10.52,10.52,0,0,0,4.86-.8c1.56-.66,5.29-4.39,7.05-2.66-1.83.66-1.86,4.78-1.9,6.46-.06,2.45,1.9,5.08,4.19,6.12,1,.93,1.75-.1,3-.4,1-.23,1.31.83,2.85-.66C109.76,162.44,110,159.56,109.76,157Z"/><path class="cls-10" d="M82.73,166.75c6.2-4.07,23.54,2.83,25.41,9.19,2,6.85-9.55,23.92-9.55,23.92L75.24,192.7S81,167.86,82.73,166.75Z"/><path class="cls-10" d="M92.32,167c-2.19-.48-7.42-2.73-12.75.8C74.75,171,66.42,178.2,64.89,184.9c-1.13,4.95,8.1-1.16,8.1-1.16l11.24-9.43S94.74,167.53,92.32,167Z"/><path class="cls-10" d="M96.31,167.16s-8.53,18-6.57,24.91-4.37,3.67-8.52.6-5-5.77-5-5.77l4.15-14s1.2-6.35,3.17-6.75a18.34,18.34,0,0,1,5.32-.67A31.27,31.27,0,0,1,96.31,167.16Z"/><path class="cls-30" d="M135.18,201.37c-2.62-2.34-14.74-10.29-14.74-10.29s-4.21,8.93-.4,14.15c5.31,7.28,14,3.31,16.33,2a1.4,1.4,0,0,0,.73-1.16A5.75,5.75,0,0,0,135.18,201.37Z"/><path class="cls-15" d="M11.18,265.4c.59-.42.6-3.23-.86-4.35,0,.39-.09.7-.54.38-.88-.61-2-2.57-1.9-3.56a4.75,4.75,0,0,0-1.63.94C5.72,259.24,10.71,265.74,11.18,265.4Z"/><path class="cls-13" d="M9.78,261.43c.6.42,1.12.28.57-.66a7.94,7.94,0,0,1-.75-1.86c-.07-.26.74-1.3.85-1.52a.55.55,0,0,0,0-.59l.07-.29c-.17-.22-1.26.74-1.51.86-.41.2-1,.47-1.09.5C7.73,258.86,8.9,260.82,9.78,261.43Z"/><path class="cls-15" d="M67.51,196.92C59.58,201.71,56,236.14,56,236.14S13.77,252.21,9.73,254.68a.57.57,0,0,0-.27.54l.26,3.29a.57.57,0,0,0,.69.52c5.48-1.07,43.24-6,54.79-12.1,7.21-3.78,22.92-35.89,30.11-45.19C98.63,197.44,72.74,193.76,67.51,196.92Z"/><path class="cls-15" d="M84.3,297.81c-.54-1.12-3-1.36-4.65-1.36.5.18,1.12.46.47.81-.94.5-3.22.66-4,.08a4.71,4.71,0,0,0,.09,1.88C76.33,299.88,84.55,298.33,84.3,297.81Z"/><path class="cls-13" d="M80.12,297.26c.65-.35.76-.87-.33-.81a7.94,7.94,0,0,1-2-.17c-.48-.1-.8-.77-.8-.77l-.85.16s0,1.49,0,1.67C76.9,297.92,79.18,297.76,80.12,297.26Z"/><path class="cls-14" d="M58.42,208.88c-.43,9.25,22.15,35.43,22.15,35.43l-6.14,50.77a.9.9,0,0,0,.94,1.22l2.09-.24a.9.9,0,0,0,.54-.27C80.67,293,94.83,255,95.32,240.42c.18-5.2-7.41-31.93-7.41-31.93s2.5-9.58,1.79-11c-2.3-.72-7.6-8.35-16.26-5.67C60.54,195.83,58.61,204.65,58.42,208.88Z"/><path class="cls-31" d="M102.6,162.79S100,168.23,100,169s.61,1.89,1.65.68S104,163.3,104,163.3Z"/><path class="cls-32" d="M103.25,161s-2.38,5.43-2.62,6.13c-.18.54,1.48,1.56,1.85.91a50.1,50.1,0,0,0,2.18-6.53Z"/><path class="cls-31" d="M107.35,165.53a12.22,12.22,0,0,0,.61-3.48,2.08,2.08,0,0,0-1.93-2.27,14.09,14.09,0,0,0-4.39.14c-.91.45-1.08,1.66-1.22,2.55a6.44,6.44,0,0,0,.36,3.37,4.2,4.2,0,0,0,2.6,1.64C105.84,167.74,106.62,167.19,107.35,165.53Z"/><rect class="cls-33" x="83.98" y="176.59" width="50.61" height="35.85" transform="translate(166.96 410.05) rotate(-165.65)"/><path class="cls-11" d="M80,207a1.48,1.48,0,0,1-.88-.67,1.53,1.53,0,0,1-.16-1.11l8.89-34.73a1.46,1.46,0,0,1,1.78-1l49,12.54a1.47,1.47,0,0,1,1.06,1.78l-8.89,34.74a1.46,1.46,0,0,1-1.78,1L80,207Zm10.32-34.37-8.16,31.9,46.2,11.82,8.16-31.9Z"/><path class="cls-11" d="M108.73,194.86a1.47,1.47,0,0,1-.72-.44L88.12,171.84a1.46,1.46,0,1,1,2.19-1.93l19.25,21.84L137.78,182a1.46,1.46,0,0,1,.95,2.76l-29.14,10A1.41,1.41,0,0,1,108.73,194.86Z"/><path class="cls-10" d="M65,186.06C65,191.13,81.84,205.72,88.53,202c2.48-1.4,2.34-3.28,2.34-3.28L71.74,181.82S64.88,180.33,65,186.06Z"/><path class="cls-34" d="M89.47,200.34a.55.55,0,0,0,.14.58c.39.32,1.32,1.1,2,1.73,0,0,1.13.95,1.86.64,0,0,.16-.25-.24-.42,0,0,1.11.24,1.33-.1s-.23-.65-.23-.65a.36.36,0,0,0,.22-.44,5.09,5.09,0,0,0-2.32-1.5s.82.15.79-.17-1.62-.69-2.11-.47a4.23,4.23,0,0,1-.9,0C89.86,199.46,89.59,200,89.47,200.34Z"/><path class="cls-34" d="M135.35,203.61s2.59-2.49,2.45-3.65,0-3-.52-3.1S137,198,137,198s-.12-1.25-.34-1.36-.35.25-.35.25.2-.1-.21,0-.46,2.52-.51,3.05-.28,1.51-.42,2.57C135.12,202.93,135,203.83,135.35,203.61Z"/><circle class="cls-35" cx="644.5" cy="271.03" r="9.14"/><circle class="cls-36" cx="7.99" cy="205.06" r="5.49"/><circle id="Ellipse_226" data-name="Ellipse 226" class="cls-37" cx="677.24" cy="168.27" r="9.36"/><circle class="cls-38" cx="83.1" cy="12.2" r="9.7"/><ellipse class="cls-39" cx="38.55" cy="89.52" rx="6.13" ry="6.42"/></g></g></svg>